<svg id="Capa_1" enable-background="new 0 0 512 512" height="512" viewBox="0 0 512 512" width="512" xmlns="http://www.w3.org/2000/svg" xmlns:xlink="http://www.w3.org/1999/xlink"><linearGradient id="SVGID_1_" gradientUnits="userSpaceOnUse" x1="256" x2="256" y1="451" y2="61"><stop offset="0" stop-color="#00b59c"/><stop offset="1" stop-color="#9cffac"/></linearGradient><g><g><path d="m286 241c-8.284 0-15 6.716-15 15s6.716 15 15 15c21.796 0 41.178-10.194 54.577-28.705 13.361-18.457 20.423-44.84 20.423-76.295 0-24.813-20.187-45-45-45s-45 20.187-45 45 20.187 45 45 45c2.729 0 5.398-.258 7.994-.725-7.506 19.578-20.71 30.725-37.994 30.725zm30-60c-8.271 0-15-6.729-15-15s6.729-15 15-15 15 6.729 15 15-6.729 15-15 15zm181-120h-482c-8.284 0-15 6.716-15 15v300c0 8.284 6.716 15 15 15h188.5l40.5 54c2.833 3.777 7.279 6 12 6s9.167-2.223 12-6l40.5-54h188.5c8.284 0 15-6.716 15-15v-300c0-8.284-6.716-15-15-15zm-15 300h-181c-4.721 0-9.167 2.223-12 6l-33 44-33-44c-2.833-3.777-7.279-6-12-6h-181v-270h452zm-376-30h300c8.284 0 15-6.716 15-15s-6.716-15-15-15h-300c-8.284 0-15 6.716-15 15s6.716 15 15 15zm60-90c-8.284 0-15 6.716-15 15s6.716 15 15 15c21.796 0 41.178-10.194 54.577-28.705 13.361-18.457 20.423-44.84 20.423-76.295 0-24.813-20.187-45-45-45s-45 20.187-45 45 20.187 45 45 45c2.729 0 5.398-.258 7.994-.725-7.506 19.578-20.71 30.725-37.994 30.725zm30-60c-8.271 0-15-6.729-15-15s6.729-15 15-15 15 6.729 15 15-6.729 15-15 15z" fill="url(#SVGID_1_)"/></g></g></svg>